<svg enable-background="new 0 0 64 64" height="64" viewBox="0 0 64 64" width="64" xmlns="http://www.w3.org/2000/svg"><path d="m53.105 56.684 2.211 4.422c.586 1.172 1.564 1.844 2.684 1.844s2.098-.672 2.684-1.844l2.211-4.422c.63-1.261 1.105-3.275 1.105-4.684v-46c0-2.206-1.794-4-4-4h-4c-2.206 0-4 1.794-4 4h-2c-2.206 0-4 1.794-4 4v8c0 1.104.896 2 2 2s2-.896 2-2v-8h2v42c0 1.409.475 3.423 1.105 4.684zm2.895-50.684h4v46c0 .785-.332 2.192-.684 2.895l-1.316 2.632-1.316-2.633c-.352-.702-.684-2.109-.684-2.894z"/><path d="m4 62h36c2.206 0 4-1.794 4-4v-40c0-1.64-.841-3.67-2-4.828l-9.172-9.173c-1.16-1.158-3.19-1.999-4.828-1.999h-24c-2.206 0-4 1.794-4 4v52c0 2.206 1.794 4 4 4zm33.171-48h-5.171v-5.172zm-33.171-8h24v8c0 2.206 1.794 4 4 4h8v40h-36z"/><path d="m10 16h11c1.104 0 2-.896 2-2s-.896-2-2-2h-11c-1.104 0-2 .896-2 2s.896 2 2 2z"/><path d="m34 22h-24c-1.104 0-2 .896-2 2s.896 2 2 2h24c1.104 0 2-.896 2-2s-.896-2-2-2z"/><path d="m34 30h-24c-1.104 0-2 .896-2 2s.896 2 2 2h24c1.104 0 2-.896 2-2s-.896-2-2-2z"/><path d="m34 38h-24c-1.104 0-2 .896-2 2s.896 2 2 2h24c1.104 0 2-.896 2-2s-.896-2-2-2z"/><path d="m34 46h-24c-1.104 0-2 .896-2 2s.896 2 2 2h24c1.104 0 2-.896 2-2s-.896-2-2-2z"/></svg>